<svg width="3178" height="24" viewBox="0 0 3178 24" fill="none" xmlns="http://www.w3.org/2000/svg">
<path d="M35.3107 17.7137C42.5092 15.6985 76.4311 12.9959 81.6567 17.7138C85.7253 17.0188 124.14 8.14132 147.313 12.2226C153.453 11.4397 183.125 10.499 188.861 9.77336C191.476 10.0774 249.455 7.1145 249.455 6.82813C249.455 5.7954 299.174 11.396 299.174 9.81115C299.174 6.4827 343.923 13.893 343.923 13.5866C343.923 13.3894 398.488 12.8532 398.488 13.4059C398.488 13.5901 448.932 13.8659 448.932 14.1977C448.932 13.4059 500.416 15.9815 500.416 16.7078C500.416 16.7467 548.945 12.8503 548.945 12.4854C548.945 16.7975 603.788 14.3418 603.788 14.0891C603.788 14.0217 654.721 11.4255 654.721 12.8538C654.721 12.5125 700.8 10.2316 700.8 9.76805C700.8 9.2443 754.227 5.59819 754.227 8.53398C754.227 10.5327 805.004 9.01732 805.004 10.4462C805.004 11.0497 865.305 15.1333 865.305 13C865.305 12.4709 913.547 10.3665 913.547 12.0523C913.547 14.9255 952.577 11.0033 952.577 11.0033C952.577 20.6161 1012.68 16.2283 1012.68 15.3556C1012.68 17.3413 1059.61 8.55902 1059.61 11C1057.44 11.4352 1109.01 10.0896 1109.01 10.5C1109.01 11.9059 1155.94 8.86346 1155.94 10.0651C1155.94 10.6413 1205.33 12.5007 1205.33 10.0651C1205.33 8.92014 1255.56 7.90513 1255.56 7.62939C1255.56 9.47813 1304.96 13.0404 1304.96 12C1304.96 10.8368 1352.71 12.6637 1352.71 11.0033C1352.71 12.0856 1398.45 9.98416 1398.45 10.0651C1398.45 10.3343 1446.11 12.1506 1446.11 11.0033C1446.11 12.8237 1491.58 13.5352 1491.58 13.2766C1491.58 13.6663 1541.13 12.9406 1541.13 13.8482C1541.13 11.7922 1593.27 15.1342 1593.27 13.5482C1593.27 14.6234 1636.93 15.3863 1636.93 16.3712C1636.93 13.8493 1693.53 15.619 1693.53 14.5183C1693.53 14.846 1742.53 13.2293 1742.53 15.3556C1742.53 12.1618 1784.14 17.2811 1784.14 18.9675C1784.14 22.5268 1833.37 19.1269 1833.37 19.7357C1833.37 20.3173 1886.36 15.4566 1886.36 18.7508C1886.36 19.8845 1931.42 23.6445 1931.42 21.2856C1931.42 21.3305 1980.13 23.1043 1980.13 22.1713C1980.13 18.7785 2030.67 24.3555 2030.67 21.6216C2030.67 21.5012 2084.46 17.1786 2084.46 18.6978C2084.46 21.9755 2129.7 19.98 2129.7 18.0191C2129.7 18.6444 2181.56 16.9808 2181.56 18.6978C2181.56 17.4968 2229.01 17.6065 2229.01 17.035C2229.01 15.041 2279.77 20.5037 2279.77 19.4952C2279.77 17.2349 2327.22 20.6222 2327.22 20.4793C2327.22 22.0434 2378.38 20.7837 2378.38 20.0646C2378.38 20.6155 2431.45 20.9379 2431.45 21.8206C2431.45 21.983 2479.5 17.035 2487.65 24C2491.64 20.0646 2541.22 11.8231 2545.71 20.0646C2545.71 17.571 2585.44 11.268 2585.44 18.6978C2585.44 20.6287 2618.54 22.0834 2618.54 20.0646C2618.54 14.4977 2665.99 20.5352 2665.99 20.0646C2665.99 18.5382 2717.85 17.9112 2717.85 18.2058C2717.85 20.8647 2759.78 20.1667 2759.78 18.2058C2759.78 17.453 2813.85 16.807 2813.85 18.2058C2813.85 15.6733 2867.05 21.3251 2860.2 19.1374C2862.43 19.9995 2913.71 15.5454 2910.96 14.2694C2914.97 14.7695 2944.76 14.9652 2951.79 16.2376C2940.76 12.2041 3003.68 12.9237 3016.89 15.0907C3018.14 14.2788 3059.12 14.2352 3062.14 14.2694C3053.01 13.5242 3114.71 19.1758 3106.27 19.1374C3109.65 18.9007 3158.54 17.0806 3158.14 17.2217C3158.91 19.0232 3168.14 14.8042 3178 15.2535V-4.76837e-07L-5.4717e-05 -4.76838e-07V15.7455C8.32709 15.4981 26.1674 15.8207 35.3107 17.7137Z" fill="#24272B"/>
</svg>
